<?xml version="1.0" encoding="UTF-8"?>
<svg id="Layer_1" data-name="Layer 1" xmlns="http://www.w3.org/2000/svg" xmlns:xlink="http://www.w3.org/1999/xlink" version="1.1" viewBox="0 0 54 46">
  <defs>
    <style>
      .cls-1 {
        clip-path: url(#clippath);
      }

      .cls-2 {
        fill: none;
      }

      .cls-2, .cls-3 {
        stroke-width: 0px;
      }

      .cls-3 {
        fill: #740270;
      }
    </style>
    <clipPath id="clippath">
      <rect class="cls-2" y="0" width="54" height="46"/>
    </clipPath>
  </defs>
  <g class="cls-1">
    <path class="cls-3" d="M42.1,23.9c0,1.6-.1,3.1-.5,4.7-.4,1.4-1,3.2-2.6,3.9-2.2,1.1-5.2,1.1-7.1,1.1-4.1,0-13.1.4-15.6-.8-.9-.4-1.6-.9-2.3-1.6-.6-.7-1-1.6-1.2-2.5-.3-1.7-.5-3.4-.7-5.1,0-1.6-.4-4.5,1.9-7,.8-.9,1.7-1.6,2.7-2.2,1.9-1.1,4.1-1.7,6.3-1.7,2.4-.2,4.9-.2,7.3,0,1.9,0,3.7.5,5.5,1.1,1.6.6,3.1,1.5,4.2,2.8.8.9,1.4,2,1.6,3.2.3,1.3.5,2.7.4,4.1h0ZM51.7,27.8c-.6-.2-1.3-.1-1.8.2-.6.3-1,.8-1.2,1.4l-2.1-.2c.2-1.5.6-2.6.7-3.9h1.8c.3,1.7,2.1,1.7,3.9,1.3,1.7-.4,1.3-4.6-.2-4.8-1.1-.2-3-.3-3.5,2h-1.9c0-1.4,0-2,0-3.3l1.6-.5c.5.5,1.1.9,1.7,1,.7.2,1.4,0,2-.2,1.7-.7,1-5.5-1.4-5.1-2.1.3-2.9,1.4-2.8,2.9l-1.6.6c0-1.1-.4-2.2-.9-3.3l1.4-1c1.7,1.6,6.3-.3,4.1-3.6-1.7-2.6-5.8.5-4.8,2.6l-1.3.9c-.5-.4-1.1-1.4-1.8-2.2l1-1.3c1.9.9,4.7-1.7,3.9-3.7-.2-.3-.4-.6-.7-.9-.3-.2-.6-.4-1-.5-2.9-1.1-4.4,3.5-3.4,4.4l-1.1,1.4c-.9-.8-1.9-1.5-3-2.1h0l.9-1.7c2.3,1.1,5.2-3.2,2.6-5-3.4-1.8-5.6,3.3-3.8,4.5l-1.1,1.7c-.9-.5-1.9-.8-2.9-1l.3-1.7c2.2,0,2.8-2.8,2.5-4-.1-.6-.5-1.2-1-1.5-.5-.4-1.2-.5-1.8-.5-2.6,0-3.4,5.3-1.2,5.7l-.3,1.7c-1.2-.3-2.4-.4-3.7-.5v-2C32.3,5.7,33.4,0,29.8,0s-3.7,5.7-1.2,5.8v2c-.3,0-1.8,0-3.6,0l-.3-2c2-.3,2.2-4.9.5-5.6-.5-.2-1-.2-1.5-.2-.5,0-1,.3-1.4.6-1.2,1.1-1,5.4,1.2,5.3l.2,1.9c-1.1,0-2.2.2-3.3.5l-.6-2c1.8-.5,1.9-6-1.4-5.5-3.6.6-1.9,6.4.3,5.7l.5,2c-1.1.2-2.2.6-3.3,1.1l-.8-2c1.4-.8.9-4.7-.9-5.2-.7-.2-1.5,0-2.1.3-.6.4-1.1.9-1.4,1.6-.2,1,.8,4.4,3,4l.7,1.8c-1.1.5-2.1,1.2-3,1.9l-1.2-1.7c.5-.7.8-1.5.7-2.3,0-.4-.2-.8-.4-1.2-.2-.4-.5-.7-.9-.9-.5-.3-1-.4-1.6-.3-.6,0-1.1.3-1.5.6-.4.3-.7.8-.9,1.3-.2.5-.1,1.1,0,1.6.3,1.1,2,2.8,3.5,1.9l1.4,1.7c-.6.6-1.1,1.2-1.6,1.8l-2.1-1.1c0-.9-.3-1.7-.8-2.5-1-1.1-3.3-1.9-4.2.7-.8,2.2-.2,3.5,1.7,3.8.4,0,.9,0,1.4,0,.4-.1.8-.4,1.2-.7l2.3,1.1c-.4.9-.7,1.8-.9,2.8l-2.2-.3c0-.3,0-.6-.1-.9-.1-.3-.3-.5-.5-.7-.2-.2-.5-.4-.7-.5-.3-.1-.6-.2-.9-.2-.4,0-.7,0-1.1,0-.3.1-.7.3-.9.5-.3.3-.5.6-.6.9-.1.3-.2.7-.1,1.1,0,2.2,1.2,2.5,2.2,2.7.3,0,.5,0,.8,0s.5-.1.8-.3c.2-.1.4-.3.6-.5.2-.2.3-.5.3-.7l2,.4c-.1,1.1-.2,2.2-.2,3.3l-2,.2c-.1-.6-.4-1.1-.9-1.4-.5-.3-1.1-.5-1.7-.4-1.1,0-2.2.6-2.2,2.6,0,3.3,4.3,2.9,4.8.6l2-.3c0,1.3,0,1.9.2,3.4l-1.8.5c-.6-1.1-1.4-1.4-2.9-1.1-1.3.3-2.1,1.1-1.5,3.5.7,2.7,5,1.1,4.6-1.1l1.8-.5c.2,1.1.6,2.1,1,3.2l-1.6.8c-.8-1-2.1-1-3.6-.3-1.4.7-.8,4.4,1.4,4.4s2.8-.7,2.4-3l1.9-.8c.5,1.1,1.2,2,2.1,2.7.9.7,2,1.2,3.2,1.5l-.3,1.4c-.7,0-1.3.3-1.8.7-.5.5-.8,1.1-.9,1.7,0,.3,0,.6,0,.9,0,.3.2.6.3.8.2.2.4.4.7.6.3.2.6.2.9.3,1.5.4,3,.4,3.5-1.7.1-.5,0-1.1-.2-1.6-.2-.5-.6-.9-1.1-1.2.2-.5.3-1,.4-1.5,1.2.3,2.5.5,3.8.5v1.8c-2.3,0-2.4,2.7-1.9,3.8.6,1.4,4,1.6,4.6.4.7-1.2.8-3.6-1.3-4v-1.9c1.6,0,2.8,0,4.5,0v1.9c-.3,0-.6,0-.9.2-.3.1-.5.3-.7.5-.2.2-.4.5-.5.7s-.2.6-.2.9c0,2.1,1.2,2.6,3,2.6s2.8-.3,2.8-2.5c0-.6-.2-1.2-.6-1.7s-1-.7-1.6-.8v-2c1.5,0,2.9,0,4.3-.2l.2,1.9c-2.7.3-2.6,5.1,1.1,4.7,4-.4,3.4-5,.3-4.9l-.2-1.9c.4,0,3.3-.2,4.4-.4l.4,1.6c-.5.3-.9.6-1.1,1.1-.3.5-.4,1-.3,1.6.2,1.4,1.1,2.5,3.5,1.9,3.1-.8,2.4-5.3-.8-4.9l-.5-1.6c1.1-.3,2.3-.6,3.4-1l1.1,1.6c-1.4,1.1-.8,4.7,1.9,4.5.6,0,1.1-.2,1.6-.5.5-.3.8-.8,1-1.3.2-.5.2-1,.1-1.5,0-.5-.3-.9-.7-1.3-.3-.4-.8-.6-1.3-.7-.5-.1-1-.1-1.5,0l-1-1.7c.5-.4,1.4-1.1,1.8-1.5l1.8,1.1c-.9,3.2,3.6,4.8,4.8,1.2,1.2-3.3-2.6-4.6-4.2-2.6l-1.8-1c.4-.9,1-1.7,1.4-2.8l2.1.2c0,2.3,3.4,2.6,4.2,1.7,1-1.1,1.5-4.2-1.1-4.7"/>
  </g>
</svg>