<?xml version="1.0" encoding="UTF-8"?><svg id="Layer_1" xmlns="http://www.w3.org/2000/svg" viewBox="0 0 274.56 64.26"><path d="M204.68,51.72c.05.36.07.92.2,1.45,1.17,5.15,4.21,8.74,9.24,10.37,4.92,1.59,9.37.46,13.25-2.91,1.65-1.43,2.71-3.28,3.71-5.17.17-.33.37-.5.79-.5,5.12.02,10.25,0,15.37.03.25,0,.59.21.74.43.56.84,1,1.76,1.57,2.59,3.16,4.56,7.52,6.77,13.06,6.07,9.7-1.23,14.98-11.75,10.15-20.24-7.04-12.36-14.14-24.68-21.3-36.96C248.92,2.55,245.02.13,239.98,0c-5.47-.13-9.65,2.34-12.38,7.05-6.8,11.7-13.51,23.45-20.29,35.16-1.36,2.36-2.55,4.74-2.68,7.55l.05,1.95ZM138.29,51.76c.32,1.19.55,2.61,1.08,3.9,1.99,4.78,5.58,7.67,10.71,8.44,4.59.69,8.49-.85,11.75-4.09,2.69-2.67,5.36-5.36,8.04-8.05.18-.18.32-.39.53-.65.26.24.44.41.61.58,2.75,2.75,5.48,5.5,8.24,8.24,2.85,2.82,6.28,4.22,10.3,4.14,6.19-.12,12-5.25,12.82-11.33.14-1.07.22-2.15.23-3.22.02-11.93.03-23.85,0-35.78-.02-5.2-2.23-9.25-6.68-11.99-5.72-3.52-13.39-2.08-17.53,3.22-2.01,2.58-2.98,5.5-2.98,8.75v3.7c-.09.06-.19.11-.28.17-.16-.23-.29-.48-.48-.67-4.28-4.3-8.58-8.58-12.86-12.88C158.96,1.37,155.55-.05,151.53,0c-6.37.09-12.17,5.28-13,11.62-.61,4.61.84,8.5,4.07,11.77,2.69,2.73,5.41,5.45,8.11,8.17.17.18.34.36.54.57-.19.21-.36.39-.53.56-2.39,2.39-4.72,4.84-7.18,7.15-2.9,2.73-4.86,5.9-5.19,9.96l-.05,1.95ZM66.39,51.72c.05.36.07.92.2,1.45,1.17,5.15,4.21,8.74,9.24,10.37,4.92,1.59,9.37.46,13.25-2.91,1.65-1.43,2.71-3.28,3.71-5.17.17-.33.37-.5.79-.5,5.12.02,10.25,0,15.37.03.25,0,.59.21.74.43.56.84,1,1.76,1.57,2.59,3.17,4.56,7.52,6.77,13.06,6.07,9.7-1.23,14.98-11.75,10.15-20.24-7.04-12.36-14.14-24.68-21.3-36.96C110.63,2.55,106.73.13,101.69,0c-5.47-.13-9.65,2.34-12.38,7.05-6.8,11.7-13.51,23.45-20.29,35.16-1.36,2.36-2.55,4.74-2.68,7.55l.05,1.95ZM64.26,49.8c-.34-4.06-2.3-7.23-5.19-9.96-2.46-2.32-4.79-4.76-7.18-7.15-.17-.17-.34-.36-.53-.56.2-.21.36-.39.54-.57,2.7-2.72,5.42-5.43,8.11-8.17,3.22-3.27,4.67-7.16,4.07-11.77C63.25,5.29,57.45.09,51.07,0c-4.02-.05-7.43,1.37-10.26,4.21-4.28,4.3-8.57,8.58-12.86,12.88-.19.19-.32.45-.48.67-.09-.06-.19-.11-.28-.17v-3.7c0-3.25-.96-6.17-2.97-8.75C20.09-.15,12.42-1.59,6.7,1.93,2.25,4.67.04,8.72.02,13.92c-.03,11.93-.02,23.85,0,35.78,0,1.07.08,2.16.23,3.22.82,6.09,6.63,11.21,12.82,11.33,4.02.08,7.45-1.32,10.3-4.14,2.76-2.73,5.49-5.49,8.24-8.24.17-.17.35-.33.61-.58.21.26.35.47.53.65,2.68,2.69,5.35,5.37,8.04,8.05,3.26,3.24,7.16,4.78,11.75,4.09,5.13-.77,8.72-3.65,10.71-8.44.53-1.29.76-2.7,1.08-3.9l-.05-1.95Z" style="fill:#6f0037; stroke-width:0px;"/></svg>