<?xml version="1.0" encoding="UTF-8"?>
<svg id="Layer_1" data-name="Layer 1" xmlns="http://www.w3.org/2000/svg" version="1.1" viewBox="0 0 274.6 64.3">
  <defs>
    <style>
      .cls-1 {
        fill: #740270;
        stroke-width: 0px;
      }
    </style>
  </defs>
  <path class="cls-1" d="M204.7,51.7c0,.4,0,.9.2,1.5,1.2,5.2,4.2,8.7,9.2,10.4,4.9,1.6,9.4.5,13.2-2.9,1.6-1.4,2.7-3.3,3.7-5.2.2-.3.4-.5.8-.5,5.1,0,10.2,0,15.4,0,.2,0,.6.2.7.4.6.8,1,1.8,1.6,2.6,3.2,4.6,7.5,6.8,13.1,6.1,9.7-1.2,15-11.8,10.1-20.2-7-12.4-14.1-24.7-21.3-37C248.9,2.5,245,.1,240,0c-5.5-.1-9.6,2.3-12.4,7.1-6.8,11.7-13.5,23.4-20.3,35.2-1.4,2.4-2.6,4.7-2.7,7.5v2c0,0,0,0,0,0ZM138.3,51.8c.3,1.2.6,2.6,1.1,3.9,2,4.8,5.6,7.7,10.7,8.4,4.6.7,8.5-.8,11.8-4.1,2.7-2.7,5.4-5.4,8-8,.2-.2.3-.4.5-.7.3.2.4.4.6.6,2.8,2.8,5.5,5.5,8.2,8.2,2.9,2.8,6.3,4.2,10.3,4.1,6.2-.1,12-5.2,12.8-11.3.1-1.1.2-2.2.2-3.2,0-11.9,0-23.9,0-35.8,0-5.2-2.2-9.2-6.7-12-5.7-3.5-13.4-2.1-17.5,3.2-2,2.6-3,5.5-3,8.8v3.7c0,0-.2.1-.3.2-.2-.2-.3-.5-.5-.7-4.3-4.3-8.6-8.6-12.9-12.9C159,1.4,155.6,0,151.5,0c-6.4,0-12.2,5.3-13,11.6-.6,4.6.8,8.5,4.1,11.8,2.7,2.7,5.4,5.5,8.1,8.2.2.2.3.4.5.6-.2.2-.4.4-.5.6-2.4,2.4-4.7,4.8-7.2,7.2-2.9,2.7-4.9,5.9-5.2,10v2c0,0,0,0,0,0ZM66.4,51.7c0,.4,0,.9.2,1.5,1.2,5.2,4.2,8.7,9.2,10.4,4.9,1.6,9.4.5,13.2-2.9,1.7-1.4,2.7-3.3,3.7-5.2.2-.3.4-.5.8-.5,5.1,0,10.2,0,15.4,0,.2,0,.6.2.7.4.6.8,1,1.8,1.6,2.6,3.2,4.6,7.5,6.8,13.1,6.1,9.7-1.2,15-11.8,10.1-20.2-7-12.4-14.1-24.7-21.3-37C110.6,2.5,106.7.1,101.7,0c-5.5-.1-9.7,2.3-12.4,7.1-6.8,11.7-13.5,23.4-20.3,35.2-1.4,2.4-2.6,4.7-2.7,7.5v2c0,0,0,0,0,0ZM64.3,49.8c-.3-4.1-2.3-7.2-5.2-10-2.5-2.3-4.8-4.8-7.2-7.2-.2-.2-.3-.4-.5-.6.2-.2.4-.4.5-.6,2.7-2.7,5.4-5.4,8.1-8.2,3.2-3.3,4.7-7.2,4.1-11.8C63.2,5.3,57.5,0,51.1,0c-4,0-7.4,1.4-10.3,4.2-4.3,4.3-8.6,8.6-12.9,12.9-.2.2-.3.5-.5.7,0,0-.2-.1-.3-.2v-3.7c0-3.2-1-6.2-3-8.8C20.1-.2,12.4-1.6,6.7,1.9,2.2,4.7,0,8.7,0,13.9c0,11.9,0,23.9,0,35.8,0,1.1,0,2.2.2,3.2.8,6.1,6.6,11.2,12.8,11.3,4,0,7.5-1.3,10.3-4.1,2.8-2.7,5.5-5.5,8.2-8.2.2-.2.4-.3.6-.6.2.3.3.5.5.7,2.7,2.7,5.3,5.4,8,8,3.3,3.2,7.2,4.8,11.8,4.1,5.1-.8,8.7-3.7,10.7-8.4.5-1.3.8-2.7,1.1-3.9v-2c0,0,0,0,0,0Z"/>
</svg>